<?xml version="1.0" encoding="utf-8"?>
<svg version="1.1" xmlns="http://www.w3.org/2000/svg" xmlns:xlink="http://www.w3.org/1999/xlink">
  <defs>
    <symbol id="icon-newspaper" viewBox="0 0 32 32">
      <title>newspaper</title>
      <path class="path1" d="M28 8v-4h-28v22c0 1.105 0.895 2 2 2h27c1.657 0 3-1.343 3-3v-17h-4zM26 26h-24v-20h24v20zM4 10h20v2h-20zM16 14h8v2h-8zM16 18h8v2h-8zM16 22h6v2h-6zM4 14h10v10h-10z"></path>
    </symbol>

    <symbol id="icon-lifebuoy" viewBox="0 0 32 32">
      <title>lifebuoy</title>
      <path class="path1" d="M16 0c-8.837 0-16 7.163-16 16s7.163 16 16 16 16-7.163 16-16-7.163-16-16-16zM10 16c0-3.314 2.686-6 6-6s6 2.686 6 6-2.686 6-6 6-6-2.686-6-6zM28.937 21.359v0l-5.544-2.297c0.391-0.943 0.608-1.977 0.608-3.062s-0.216-2.119-0.608-3.062l5.544-2.297c0.685 1.651 1.063 3.46 1.063 5.359s-0.379 3.708-1.063 5.359v0zM21.359 3.063v0 0l-2.297 5.544c-0.943-0.391-1.977-0.607-3.062-0.607s-2.119 0.216-3.062 0.607l-2.297-5.544c1.651-0.684 3.46-1.063 5.359-1.063s3.708 0.379 5.359 1.063zM3.063 10.641l5.544 2.297c-0.391 0.943-0.608 1.977-0.608 3.062s0.216 2.119 0.607 3.062l-5.544 2.297c-0.685-1.651-1.063-3.46-1.063-5.359s0.379-3.708 1.063-5.359zM10.641 28.937l2.297-5.544c0.943 0.391 1.977 0.608 3.062 0.608s2.119-0.216 3.062-0.608l2.297 5.544c-1.651 0.684-3.46 1.063-5.359 1.063s-3.708-0.379-5.359-1.063z"></path>
    </symbol>

    <symbol id="icon-link" viewBox="0 0 32 32">
      <title>link</title>
      <path class="path1" d="M13.757 19.868c-0.416 0-0.832-0.159-1.149-0.476-2.973-2.973-2.973-7.81 0-10.783l6-6c1.44-1.44 3.355-2.233 5.392-2.233s3.951 0.793 5.392 2.233c2.973 2.973 2.973 7.81 0 10.783l-2.743 2.743c-0.635 0.635-1.663 0.635-2.298 0s-0.635-1.663 0-2.298l2.743-2.743c1.706-1.706 1.706-4.481 0-6.187-0.826-0.826-1.925-1.281-3.094-1.281s-2.267 0.455-3.094 1.281l-6 6c-1.706 1.706-1.706 4.481 0 6.187 0.635 0.635 0.635 1.663 0 2.298-0.317 0.317-0.733 0.476-1.149 0.476z"></path>
      <path class="path2" d="M8 31.625c-2.037 0-3.952-0.793-5.392-2.233-2.973-2.973-2.973-7.81 0-10.783l2.743-2.743c0.635-0.635 1.664-0.635 2.298 0s0.635 1.663 0 2.298l-2.743 2.743c-1.706 1.706-1.706 4.481 0 6.187 0.826 0.826 1.925 1.281 3.094 1.281s2.267-0.455 3.094-1.281l6-6c1.706-1.706 1.706-4.481 0-6.187-0.635-0.635-0.635-1.663 0-2.298s1.663-0.635 2.298 0c2.973 2.973 2.973 7.81 0 10.783l-6 6c-1.44 1.44-3.355 2.233-5.392 2.233z"></path>
    </symbol>
  </defs>
</svg>
